<svg width="22" height="20" viewBox="0 0 22 20" fill="none" xmlns="http://www.w3.org/2000/svg">
<path d="M19 1V11C19 13.1217 18.1571 15.1566 16.6569 16.6569C15.1566 18.1571 13.1217 19 11 19C8.8783 19 6.8434 18.1571 5.3431 16.6569C3.8429 15.1566 3 13.1217 3 11V1L6.432 4.432C7.7717 3.4974 9.3665 2.9975 11 3C12.769 3 14.403 3.574 15.728 4.546L19 1Z" stroke="#3788E5" stroke-width="2" stroke-linecap="round" stroke-linejoin="round"/>
<path d="M1 14H6L2 18" stroke="#3788E5" stroke-width="2" stroke-linecap="round" stroke-linejoin="round"/>
<path d="M21 14H16L20 18" stroke="#3788E5" stroke-width="2" stroke-linecap="round" stroke-linejoin="round"/>
<path d="M10 14C10 14.2652 10.1054 14.5196 10.2929 14.7071C10.4804 14.8946 10.7348 15 11 15C11.2652 15 11.5196 14.8946 11.7071 14.7071C11.8946 14.5196 12 14.2652 12 14C12 13.7348 11.8946 13.4804 11.7071 13.2929C11.5196 13.1054 11.2652 13 11 13C10.7348 13 10.4804 13.1054 10.2929 13.2929C10.1054 13.4804 10 13.7348 10 14Z" stroke="#3788E5" stroke-width="2" stroke-linecap="round" stroke-linejoin="round"/>
<path d="M8 9V9.01" stroke="#3788E5" stroke-width="2" stroke-linecap="round" stroke-linejoin="round"/>
<path d="M14 9V9.01" stroke="#3788E5" stroke-width="2" stroke-linecap="round" stroke-linejoin="round"/>
</svg>
